<svg xmlns="http://www.w3.org/2000/svg" viewBox="0 0 102 93.186935" height="124.249" width="136" version="1"><path d="M38.5 1.087c-14.8 3.1-22.8 5.6-32.2 10-3.5 1.5-6.3 3.2-6.3 3.7 0 .4 2.4 8 5.4 16.8 2.9 8.7 7.3 21.9 9.6 29.2l4.3 13.3 4.6 2.6c2.5 1.4 8 4.7 12.1 7.3 4.1 2.6 9.3 5.7 11.6 6.9l4.1 2.3 6.1-3.9c9.4-5.9 17.2-10.6 21.5-13 3.5-1.9 4.3-3.1 6.2-9 1.3-3.7 5.5-16.5 9.4-28.4 3.9-11.9 7.1-22.5 7.1-23.5 0-2.2-5.5-4.9-19.1-9.5-16.1-5.4-33.1-7.3-44.4-4.8zm24.2 6.4c7.2 1.3 21.6 5.6 29.3 8.9l2.8 1.1-2.3 7c-1.2 3.9-5.1 15.6-8.5 26.1-6.1 18.3-6.4 19.1-9.9 21-2 1.1-7.7 4.6-12.8 7.7-5.1 3.1-9.6 5.7-10.1 5.7s-4-1.9-7.8-4.3-9.5-5.9-12.7-7.8l-5.8-3.5-5.8-17.5c-8.4-25-11.2-34.1-10.9-34.3 4-2.2 15.2-6.2 22.8-8.1 15.2-3.9 19.7-4.1 31.7-2z" fill="#fff"/><text style="line-height:1.25" x="51.134" y="54.213" font-weight="400" font-size="30" font-family="sans-serif" letter-spacing="0" word-spacing="0" stroke-width=".75"><tspan x="51.134" y="54.213"><tspan x="51.134" y="54.213" style="-inkscape-font-specification:'Sathu, Normal';font-variant-ligatures:normal;font-variant-caps:normal;font-variant-numeric:normal;font-feature-settings:normal;text-align:center" font-size="48" font-family="Sathu" text-anchor="middle">SG</tspan></tspan></text><path d="M32.451 55.11c-1.185-.126-2.656-.435-3.689-.778-3.348-1.109-5.367-3.783-5.697-7.544L23 46.052h4.703v.71c0 1.313.64 2.672 1.619 3.434.56.436 1.91.976 3.029 1.211 1.456.305 3.687.364 4.886.13 3.705-.727 6.12-3.896 5.548-7.28-.443-2.617-2.214-4.044-7.963-6.414a106.32 106.32 0 0 1-3.044-1.307c-4.114-1.902-6.556-4.39-7.389-7.528-.34-1.282-.335-3.594.011-4.9.592-2.232 1.874-4.096 3.656-5.312 1.965-1.341 4.403-1.924 8.042-1.923 4.064.002 6.388.63 8.065 2.183 1.274 1.18 1.98 2.538 2.183 4.2l.082.676h-2.29c-2.452 0-2.433.005-2.433-.603 0-.64-.93-1.749-1.853-2.21-2.014-1.008-6.07-1.01-8.042-.005-.648.33-1.648 1.28-2.116 2.009-1.1 1.716-1.115 4.107-.034 5.892.772 1.274 1.713 1.985 4.338 3.274 1.294.636 3.068 1.455 3.942 1.82 3.367 1.41 5.424 2.651 7.015 4.23.95.943 1.142 1.208 1.667 2.3.76 1.582.982 2.51.983 4.1.002 2.174-.555 4.01-1.778 5.868-1.738 2.638-4.194 4.047-7.828 4.492-1.168.143-4.232.149-5.548.01zm33.139.041c-1.868-.184-4.08-.779-5.432-1.46-3.63-1.83-6.559-5.778-7.675-10.345-1.216-4.973-.907-12.76.672-16.956 1.003-2.665 3.055-5.361 5.268-6.923 2.561-1.809 5.213-2.595 8.747-2.594 2.13 0 3.547.21 5.264.781 2.295.763 4.086 2.09 5.286 3.916.63.96 1.165 2.425 1.165 3.192v.464h-4.203l-.076-.553c-.11-.798-.493-1.508-1.195-2.21-2.057-2.057-5.986-2.713-9.422-1.574-3.217 1.067-5.534 3.942-6.672 8.279-.91 3.468-1.035 8.484-.304 12.272.864 4.479 3.067 7.874 6.047 9.318 1.574.762 2.187.881 4.53.881 2.289 0 3.281-.163 5.759-.947l1.3-.412V39.816h-8.236v-3.53h12.474l-.03 8.145-.03 8.145-1.177.503c-2.354 1.007-4.995 1.735-7.35 2.027-.919.114-3.74.141-4.71.045z" fill="#fff"/></svg>