<svg xmlns="http://www.w3.org/2000/svg" version="1" width="136" height="124.249" viewBox="0 0 102 93.186935"><path d="M38.5 1.087c-14.8 3.1-22.8 5.6-32.2 10-3.5 1.5-6.3 3.2-6.3 3.7 0 .4 2.4 8 5.4 16.8 2.9 8.7 7.3 21.9 9.6 29.2l4.3 13.3 4.6 2.6c2.5 1.4 8 4.7 12.1 7.3 4.1 2.6 9.3 5.7 11.6 6.9l4.1 2.3 6.1-3.9c9.4-5.9 17.2-10.6 21.5-13 3.5-1.9 4.3-3.1 6.2-9 1.3-3.7 5.5-16.5 9.4-28.4 3.9-11.9 7.1-22.5 7.1-23.5 0-2.2-5.5-4.9-19.1-9.5-16.1-5.4-33.1-7.3-44.4-4.8zm24.2 6.4c7.2 1.3 21.6 5.6 29.3 8.9l2.8 1.1-2.3 7c-1.2 3.9-5.1 15.6-8.5 26.1-6.1 18.3-6.4 19.1-9.9 21-2 1.1-7.7 4.6-12.8 7.7-5.1 3.1-9.6 5.7-10.1 5.7s-4-1.9-7.8-4.3-9.5-5.9-12.7-7.8l-5.8-3.5-5.8-17.5c-8.4-25-11.2-34.1-10.9-34.3 4-2.2 15.2-6.2 22.8-8.1 15.2-3.9 19.7-4.1 31.7-2z"/><text y="54.213" x="51.134" style="line-height:1.25" font-weight="400" font-size="30" font-family="sans-serif" letter-spacing="0" word-spacing="0" stroke-width=".75"><tspan y="54.213" x="51.134"><tspan style="-inkscape-font-specification:'Sathu, Normal';font-variant-ligatures:normal;font-variant-caps:normal;font-variant-numeric:normal;font-feature-settings:normal;text-align:center" y="54.213" x="51.134" font-size="48" font-family="Sathu" text-anchor="middle">SG</tspan></tspan></text></svg>
