<svg id="svg2166" xmlns="http://www.w3.org/2000/svg" viewBox="0 0 138.57 229.88">
	<defs>
		<clipPath id="ggPath">
			<path id="text11939" d="M94.5,190q-21.89,15.69-25,19.75t-10.37-2.61q-7.2-6.69-.86-6.68a37.45,37.45,0,0,0,13.24-2.61q6.92-2.62,23-11.33.57-26.72,0-39.2t-4-18.59q-3.47-6.09,2.3-4.64a28.38,28.38,0,0,1,9.79,4.35q4,2.91,2,6.1t-2,28.75q0,25-1.44,48.78t-4,30.5q-2.59,6.67-5.76-1.75A25.82,25.82,0,0,1,91,223.38q2.88-9,3.46-33.4Zm65.08-6.38q15.55-2.32,21.31-3.49T191,183.6c2.88,3.09,2.4,4.55-1.44,4.35s-13.82.29-29.95,1.45q.58,29,1.15,36a39.28,39.28,0,0,1-.86,12.78,20.61,20.61,0,0,1-6.05,10.16q-4.6,4.36-6-.87t-9.5-9.87q-8.06-4.65-.57-3.49t10.94.58c2.3-.38,3.45-2.71,3.45-7V190Q125,194,119,195.5a12.24,12.24,0,0,1-11.23-2.9c-3.46-2.91-3.17-4.16.86-3.78s18.33-1.16,42.91-4.64q-.59-8.13-3.17-11.91c-1.73-2.52-1.15-3.48,1.73-2.9a41.92,41.92,0,0,1,8.35,2.61q4,1.74,2.88,3.48c-.77,1.17-1.34,3.88-1.73,8.14Zm-31.1-34.27a27.58,27.58,0,0,1,9.79,4.36q4.6,3.19,2,7t-6.63,0a43.43,43.43,0,0,1-7.48-9.58q-18.44,10.45-9.22,1.45a75.92,75.92,0,0,0,13.82-17.42q4.62-8.41,4.61-13.07c0-3.09,1.35-4.16,4-3.19a46.86,46.86,0,0,1,8.35,4.06q4.32,2.63.58,4.94t-8.93,9.87q15.56,0,19.59-2.61c2.68-1.74,5.18-2,7.48-.87a28.33,28.33,0,0,1,6.34,4.35q2.88,2.63,0,4.36T155,159.49q-15,14.82-29.08,18.88t-6.91,0a172.5,172.5,0,0,0,16.7-11A88.92,88.92,0,0,0,153,150.49q7.77-9.87,4.32-9.87a76.51,76.51,0,0,0-9.22.87q-6.33.87-10.36-1.45a105.85,105.85,0,0,1-9.22,9.29Zm-59.32,5.81q-1.72-3.49,5.47-.87t9.5,7.55q2.31,4.94,0,9t-5.47,0a67.73,67.73,0,0,1-5.47-8.13q-2.31-4.06-4-7.55Zm51.26,48.2c-.77-3.09,1.25-3.68,6-1.74s7.59,4.36,8.36,7.26a13,13,0,0,1-.29,8.13q-1.44,3.78-4.61.58a43.27,43.27,0,0,1-5.47-6.68,46.36,46.36,0,0,1-4-7.55Z" transform="translate(-54.75 -20.95)" style="fill:#FFF; stroke:#000;stroke-opacity:0.49803921580314636"/>
			<path id="text11929" d="M120.36,67.09q4.14,2.79,3.23,4.41t-1.39,7.21c5.22-.93,9.53-1.79,12.9-2.56s6.15-.23,8.3,1.63.84,3-3.92,3.48S129,82.42,122.2,83.35l-.92,25.56q17.5-1.39,25.34-2.56t12.44,1.86c3.08,2,3.84,3.48,2.31,4.41s-5.07,1.16-10.6.7-13.44-.31-23.73.46-18.12,1.55-23.5,2.33-9.44,1.47-12.21,2.09-5.68-.23-8.75-2.56-2.38-3.4,2.07-3.25,14.82-.85,31.1-3V84.28q-8.75.93-11.06,1.39t-6-1.85Q95,81.5,100.78,81.26t15.43-1.63q0-9.28-1.38-12.08a22.09,22.09,0,0,1-10.6-1.39q-4.14-1.86,1.39-2.79t12.9-2.32q7.37-1.39,11.75-2.56t7.37.93q3,2.1-1.38,3.72a123.46,123.46,0,0,1-15.9,4Zm3.23-34.85q14.28,13,21.88,18.82A94,94,0,0,0,160,60.35a85.72,85.72,0,0,0,15,5.81q8.06,2.32,3.22,3t-13.36,1.63a16.3,16.3,0,0,1-14.28-5.11q-5.76-6-11.06-12.08T122.2,35A226.38,226.38,0,0,1,98.47,63.37q-11.28,11.16-22.8,15.8t-.93-2.56a117.52,117.52,0,0,0,21.2-19,171.05,171.05,0,0,0,16.13-20.44q5.52-8.59,5.29-12.78c-.15-2.78,1.08-3.56,3.69-2.32a25.37,25.37,0,0,1,5.76,3.49q1.84,1.62.23,3a26.68,26.68,0,0,0-3.45,3.71Zm12,60.4a6.06,6.06,0,0,0,2.08-4.87q-.24-2.56,3.68-.93a14,14,0,0,1,5.76,4q1.84,2.31-1.38,3a33.93,33.93,0,0,0-7.83,3q-4.6,2.31-8.3,4c-2.45,1.08-2.38.38.24-2.1a61,61,0,0,0,5.75-6ZM96.86,94.5q-2.76-4.64,2.07-3.25a17.19,17.19,0,0,1,7.61,4.18,5.46,5.46,0,0,1,1.15,6.51c-1.08,2.47-2.69,2.63-4.84.46a40.58,40.58,0,0,1-6-7.9Z" transform="translate(-54.75 -20.95)" style="fill:#FFF;stroke:#000;stroke-opacity:0.49803921580314636"/>
		</clipPath>
	</defs>
</svg>