<?xml version="1.0" encoding="UTF-8" standalone="no"?>
<svg
   xmlns:dc="http://purl.org/dc/elements/1.1/"
   xmlns:cc="http://creativecommons.org/ns#"
   xmlns:rdf="http://www.w3.org/1999/02/22-rdf-syntax-ns#"
   xmlns:svg="http://www.w3.org/2000/svg"
   xmlns="http://www.w3.org/2000/svg"
   version="1.0"
   width="102pt"
   height="93.186935pt"
   viewBox="0 0 102 93.186935"
   preserveAspectRatio="xMidYMid meet"
   id="svg3943">
  <defs
     id="defs3947" />
  <metadata
     id="metadata3937">
Created by potrace 1.15, written by Peter Selinger 2001-2017
<rdf:RDF>
  <cc:Work
     rdf:about="">
    <dc:format>image/svg+xml</dc:format>
    <dc:type
       rdf:resource="http://purl.org/dc/dcmitype/StillImage" />
    <dc:title></dc:title>
  </cc:Work>
</rdf:RDF>
</metadata>
  <g
     style="fill:#000000;stroke:none"
     transform="matrix(0.1,0,0,-0.1,-105,192.98693)"
     id="g3941">
    <path
       d="m 1435,1919 c -148,-31 -228,-56 -322,-100 -35,-15 -63,-32 -63,-37 0,-4 24,-80 54,-168 29,-87 73,-219 96,-292 l 43,-133 46,-26 c 25,-14 80,-47 121,-73 41,-26 93,-57 116,-69 l 41,-23 61,39 c 94,59 172,106 215,130 35,19 43,31 62,90 13,37 55,165 94,284 39,119 71,225 71,235 0,22 -55,49 -191,95 -161,54 -331,73 -444,48 z m 242,-64 c 72,-13 216,-56 293,-89 l 28,-11 -23,-70 c -12,-39 -51,-156 -85,-261 -61,-183 -64,-191 -99,-210 -20,-11 -77,-46 -128,-77 -51,-31 -96,-57 -101,-57 -5,0 -40,19 -78,43 -38,24 -95,59 -127,78 l -58,35 -58,175 c -84,250 -112,341 -109,343 40,22 152,62 228,81 152,39 197,41 317,20 z"
       id="path3939" />
  </g>
  <text
     id="text17"
     y="54.213158"
     x="51.134003"
     style="font-style:normal;font-weight:normal;font-size:30px;line-height:1.25;font-family:sans-serif;letter-spacing:0px;word-spacing:0px;fill:#000000;fill-opacity:1;stroke:none;stroke-width:0.75"
     xml:space="preserve"><tspan
       style="stroke-width:0.75"
       id="tspan15"
       y="54.213158"
       x="51.134003"><tspan
         id="tspan13"
         style="font-style:normal;font-variant:normal;font-weight:normal;font-stretch:normal;font-size:48px;font-family:Sathu;-inkscape-font-specification:'Sathu, Normal';font-variant-ligatures:normal;font-variant-caps:normal;font-variant-numeric:normal;font-feature-settings:normal;text-align:center;writing-mode:lr-tb;text-anchor:middle;stroke-width:0.75"
         y="54.213158"
         x="51.134003">SG</tspan></tspan></text>
</svg>
