<?xml version="1.0" encoding="UTF-8" standalone="no"?>
<svg
   xmlns:dc="http://purl.org/dc/elements/1.1/"
   xmlns:cc="http://creativecommons.org/ns#"
   xmlns:rdf="http://www.w3.org/1999/02/22-rdf-syntax-ns#"
   xmlns:svg="http://www.w3.org/2000/svg"
   xmlns="http://www.w3.org/2000/svg"
   id="svg3943"
   preserveAspectRatio="xMidYMid meet"
   viewBox="0 0 102 93.186935"
   height="93.186935pt"
   width="102pt"
   version="1.0">
  <defs
     id="defs3947" />
  <metadata
     id="metadata3937">
Created by potrace 1.15, written by Peter Selinger 2001-2017
<rdf:RDF>
  <cc:Work
     rdf:about="">
    <dc:format>image/svg+xml</dc:format>
    <dc:type
       rdf:resource="http://purl.org/dc/dcmitype/StillImage" />
    <dc:title></dc:title>
  </cc:Work>
</rdf:RDF>
</metadata>
  <g
     id="g3941"
     transform="matrix(0.1,0,0,-0.1,-105,192.98693)"
     style="fill:#000000;stroke:none">
    <path
       style="fill:#ffffff"
       id="path3939"
       d="m 1435,1919 c -148,-31 -228,-56 -322,-100 -35,-15 -63,-32 -63,-37 0,-4 24,-80 54,-168 29,-87 73,-219 96,-292 l 43,-133 46,-26 c 25,-14 80,-47 121,-73 41,-26 93,-57 116,-69 l 41,-23 61,39 c 94,59 172,106 215,130 35,19 43,31 62,90 13,37 55,165 94,284 39,119 71,225 71,235 0,22 -55,49 -191,95 -161,54 -331,73 -444,48 z m 242,-64 c 72,-13 216,-56 293,-89 l 28,-11 -23,-70 c -12,-39 -51,-156 -85,-261 -61,-183 -64,-191 -99,-210 -20,-11 -77,-46 -128,-77 -51,-31 -96,-57 -101,-57 -5,0 -40,19 -78,43 -38,24 -95,59 -127,78 l -58,35 -58,175 c -84,250 -112,341 -109,343 40,22 152,62 228,81 152,39 197,41 317,20 z" />
  </g>
  <text
     xml:space="preserve"
     style="font-style:normal;font-weight:normal;font-size:30px;line-height:1.25;font-family:sans-serif;letter-spacing:0px;word-spacing:0px;fill:#000000;fill-opacity:1;stroke:none;stroke-width:0.75"
     x="51.134003"
     y="54.213158"
     id="text17"><tspan
       x="51.134003"
       y="54.213158"
       id="tspan15"
       style="stroke-width:0.75"><tspan
         x="51.134003"
         y="54.213158"
         style="font-style:normal;font-variant:normal;font-weight:normal;font-stretch:normal;font-size:48px;font-family:Sathu;-inkscape-font-specification:'Sathu, Normal';font-variant-ligatures:normal;font-variant-caps:normal;font-variant-numeric:normal;font-feature-settings:normal;text-align:center;writing-mode:lr-tb;text-anchor:middle;stroke-width:0.75"
         id="tspan13">SG</tspan></tspan></text>
  <path
     transform="scale(0.75000001)"
     id="path68"
     d="m 43.268116,73.47891 c -1.580614,-0.166506 -3.541539,-0.579403 -4.918505,-1.035652 -4.464105,-1.479152 -7.156026,-5.04408 -7.596266,-10.059782 l -0.08606,-0.980502 h 3.135202 3.135202 v 0.946232 c 0,1.750157 0.854214,3.562902 2.157701,4.578897 0.746266,0.581673 2.547149,1.301521 4.039074,1.614498 1.941884,0.407369 4.916142,0.486051 6.515481,0.172361 4.93989,-0.968896 8.160253,-5.194023 7.396614,-9.704382 C 56.455608,55.520188 54.094253,53.617948 46.428951,50.457334 44.96212,49.852519 43.135924,49.068233 42.370739,48.714476 36.885897,46.178748 33.62962,42.86132 32.519112,38.677838 c -0.453846,-1.70972 -0.447108,-4.791968 0.01428,-6.533052 0.78889,-2.976924 2.499226,-5.462252 4.874937,-7.083881 2.619025,-1.78771 5.870133,-2.564912 10.722674,-2.563336 5.417669,0.0018 8.516911,0.840635 10.752491,2.910388 1.699576,1.573508 2.640839,3.384188 2.910815,5.599447 l 0.109934,0.902062 h -3.05367 c -3.269045,0 -3.244122,0.0062 -3.244122,-0.803483 0,-0.853049 -1.239243,-2.332007 -2.469962,-2.94774 -2.68643,-1.344032 -8.09455,-1.347183 -10.723002,-0.0062 -0.864697,0.441136 -2.197258,1.706251 -2.820919,2.678143 -1.468138,2.287894 -1.486585,5.476069 -0.04546,7.85653 1.028245,1.698462 2.284049,2.646285 5.78368,4.36525 1.725684,0.847631 4.090655,1.940153 5.255492,2.427828 4.489246,1.879485 7.232857,3.53348 9.353513,5.638787 1.265929,1.256767 1.522365,1.610771 2.222384,3.067943 1.01303,2.108741 1.309984,3.346436 1.311494,5.466277 0.0021,2.897817 -0.740402,5.346986 -2.371503,7.822883 -2.317171,3.517303 -5.591043,5.396194 -10.437448,5.990097 -1.556084,0.190691 -5.642382,0.197969 -7.396604,0.01318 z"
     style="fill:#ffffff;stroke-width:0.15688036" />
  <path
     transform="scale(0.75000001)"
     id="path70"
     d="M 87.453165,73.535234 C 84.962081,73.289363 82.012674,72.496246 80.210732,71.587691 75.370395,69.14715 71.465394,63.884054 69.976917,57.794726 68.356246,51.164591 68.768136,40.780333 70.873671,35.18644 c 1.337243,-3.552727 4.072526,-7.147733 7.023369,-9.230872 3.415392,-2.411088 6.951131,-3.45955 11.662435,-3.458293 2.84001,7.58e-4 4.729422,0.281171 7.018829,1.041687 3.059834,1.016444 5.447986,2.785663 7.047866,5.221276 0.84125,1.280697 1.55448,3.233198 1.55448,4.255489 v 0.619423 h -2.80253 -2.802519 l -0.101105,-0.737641 c -0.14595,-1.06482 -0.657688,-2.011128 -1.593774,-2.947214 -2.742057,-2.742057 -7.981201,-3.617124 -12.561985,-2.098164 -4.288911,1.422177 -7.378348,5.255452 -8.896515,11.038511 -1.213728,4.623382 -1.37927,11.312171 -0.40496,16.362539 1.152093,5.971905 4.08999,10.498741 8.062975,12.423771 2.09817,1.016627 2.915107,1.175641 6.039894,1.175643 3.051535,3e-6 4.375044,-0.21783 7.677882,-1.263686 l 1.73494,-0.549376 v -6.975608 -6.97561 H 94.04214 88.551328 v -2.353206 -2.353205 h 8.315733 8.315729 l -0.0403,10.859557 -0.0403,10.859558 -1.56881,0.670839 c -3.13871,1.342149 -6.659508,2.313099 -9.800906,2.702851 -1.224521,0.151925 -4.985962,0.188181 -6.279329,0.06052 z"
     style="fill:#ffffff;stroke-width:0.15688036" />
  <path
     transform="scale(0.75000001)"
     id="path72"
     d=""
     style="fill:#ffffff;stroke-width:0.15688036" />
  <path
     transform="scale(0.75000001)"
     id="path74"
     d=""
     style="fill:#ffffff;stroke-width:0.15688036" />
  <path
     transform="scale(0.75000001)"
     id="path76"
     d=""
     style="fill:#ffffff;stroke-width:0.15688036" />
  <path
     transform="scale(0.75000001)"
     id="path78"
     d=""
     style="fill:#ffffff;stroke-width:0.15688036" />
</svg>
